Genre:Drama | Mystery | Sci-Fi | Thriller
Language:English
IMDb:http://www.imdb.com/title/tt1375666/
Source video:ELEKTRI4KA.Thanks
Source audio:V2 Prism/MGExiled.Thanks
Sample:Yes
Subtitles: ROMANA
...........................................
General
Complete name : Inception.2010.TS.V2.XVID.FEEL-FREE
Format : AVI
Format/Info : Audio Video Interleave
Format profile : OpenDML
File size : 1.31 GiB
Duration : 2h 19mn
...........................................
Video
Format : xvid
Codec ID : xvid
Duration : 2h 19mn
Duration : 6h 12mn
Bit rate : 448 Kbps
Width : 720 pixels
Height : 304 pixels
Display aspect ratio : 2.35:1
Frame rate : 25.000 fps
Resolution : 24 bits
Bits/(Pixel*Frame) : 0.082
Stream size : 1.17 GiB (89%)
............................................
Audio
ID : 1
Format : MPEG Audio
Format version : Version 1
Format profile : Layer 3
Format settings, Mode : Joint stereo / MS Stereo
Codec ID : 55
Codec ID/Hint : MP3
Duration : 2h 19mn
Bit rate mode : Constant
Bit rate : 128 Kbps
Channel(s) : 2 channels
Sampling rate : 48.0 KHz
Resolution : 16 bits
Stream size : 128 MiB (10%)
Alignment : Aligned on interleaves
Interleave, duration : 24 ms (0.60 video frame)
Interleave, preload duration : 24 ms
............................................
Plot:
In a world where technology exists to enter the human mind through dream invasion, a highly skilled thief is given a final chance at redemption which involves executing his toughest job till date, Inception
............................................


http*://i31*.*tinypic.*com/2d2io2t.jpg